<svg xmlns="http://www.w3.org/2000/svg" width="840" height="840" viewBox="0 0 840 840" role="img" aria-label="Interlinked chain variant 8">
  <defs>
    <linearGradient id="metal" x1="-30" y1="-26" x2="34" y2="22" gradientUnits="userSpaceOnUse">
      <stop offset="0" stop-color="#fff9ef"/>
      <stop offset="0.14" stop-color="#8a8178"/>
      <stop offset="0.45" stop-color="#272422"/>
      <stop offset="0.74" stop-color="#c3b8ac"/>
      <stop offset="1" stop-color="#0b0a09"/>
    </linearGradient>
    <filter id="soft-shadow" x="-45%" y="-45%" width="190%" height="190%">
      <feDropShadow dx="0" dy="8" stdDeviation="5" flood-color="#000000" flood-opacity="0.5"/>
    </filter>
    <g id="link-back-top">
      <path d="M -34 0 A 34 17 0 0 1 34 0" fill="none" stroke="#070606" stroke-width="15" stroke-linecap="round"/>
      <path d="M -34 0 A 34 17 0 0 1 34 0" fill="none" stroke="url(#metal)" stroke-width="9" stroke-linecap="round"/>
      <path d="M -34 0 A 34 17 0 0 1 34 0" fill="none" stroke="#ffffff" stroke-width="2.52" stroke-linecap="round" opacity="0.18"/>
    </g>
    <g id="link-back-bottom">
      <path d="M -34 0 A 34 17 0 0 0 34 0" fill="none" stroke="#070606" stroke-width="15" stroke-linecap="round"/>
      <path d="M -34 0 A 34 17 0 0 0 34 0" fill="none" stroke="url(#metal)" stroke-width="9" stroke-linecap="round"/>
      <path d="M -34 0 A 34 17 0 0 0 34 0" fill="none" stroke="#000000" stroke-width="3.42" stroke-linecap="round" opacity="0.28"/>
    </g>
    <g id="link-front-top">
      <path d="M -34 0 A 34 17 0 0 1 34 0" fill="none" stroke="#070606" stroke-width="15" stroke-linecap="round"/>
      <path d="M -34 0 A 34 17 0 0 1 34 0" fill="none" stroke="url(#metal)" stroke-width="9" stroke-linecap="round"/>
      <path d="M -34 0 A 34 17 0 0 1 34 0" fill="none" stroke="#ffffff" stroke-width="2.52" stroke-linecap="round" opacity="0.34"/>
    </g>
    <g id="link-front-bottom">
      <path d="M -34 0 A 34 17 0 0 0 34 0" fill="none" stroke="#070606" stroke-width="15" stroke-linecap="round"/>
      <path d="M -34 0 A 34 17 0 0 0 34 0" fill="none" stroke="url(#metal)" stroke-width="9" stroke-linecap="round"/>
      <path d="M -34 0 A 34 17 0 0 0 34 0" fill="none" stroke="#000000" stroke-width="3.42" stroke-linecap="round" opacity="0.42"/>
    </g>
  </defs>
  <g transform="scale(2)">
    <g filter="url(#soft-shadow)" transform="translate(210 210) rotate(-135) translate(-319 -90)">
      <g>
      <use href="#link-back-top" transform="translate(145 117) rotate(33) scale(1.02)"/>
      <use href="#link-back-bottom" transform="translate(201 88) rotate(-30) scale(0.99)"/>
      <use href="#link-back-top" transform="translate(260 69) rotate(25) scale(0.97)"/>
      <use href="#link-back-bottom" transform="translate(321 62) rotate(-15) scale(0.96)"/>
      <use href="#link-back-top" transform="translate(383 67) rotate(10) scale(0.98)"/>
      <use href="#link-back-bottom" transform="translate(441 86) rotate(-20) scale(1.01)"/>
      <use href="#link-back-top" transform="translate(496 113) rotate(29) scale(1.04)"/>
      </g>
      <g>
      <use href="#link-front-bottom" transform="translate(145 117) rotate(33) scale(1.02)"/>
      <use href="#link-front-top" transform="translate(201 88) rotate(-30) scale(0.99)"/>
      <use href="#link-front-bottom" transform="translate(260 69) rotate(25) scale(0.97)"/>
      <use href="#link-front-top" transform="translate(321 62) rotate(-15) scale(0.96)"/>
      <use href="#link-front-bottom" transform="translate(383 67) rotate(10) scale(0.98)"/>
      <use href="#link-front-top" transform="translate(441 86) rotate(-20) scale(1.01)"/>
      <use href="#link-front-bottom" transform="translate(496 113) rotate(29) scale(1.04)"/>
      </g>
    </g>
  </g>
</svg>