<svg xmlns="http://www.w3.org/2000/svg" width="840" height="840" viewBox="0 0 840 840" role="img" aria-label="Interlinked chain variant 9">
  <defs>
    <linearGradient id="metal" x1="-30" y1="-26" x2="34" y2="22" gradientUnits="userSpaceOnUse">
      <stop offset="0" stop-color="#fff9ef"/>
      <stop offset="0.14" stop-color="#8a8178"/>
      <stop offset="0.45" stop-color="#272422"/>
      <stop offset="0.74" stop-color="#c3b8ac"/>
      <stop offset="1" stop-color="#0b0a09"/>
    </linearGradient>
    <filter id="soft-shadow" x="-45%" y="-45%" width="190%" height="190%">
      <feDropShadow dx="0" dy="8" stdDeviation="5" flood-color="#000000" flood-opacity="0.5"/>
    </filter>
    <g id="link-back-top">
      <path d="M -48 0 A 48 22 0 0 1 48 0" fill="none" stroke="#070606" stroke-width="19" stroke-linecap="round"/>
      <path d="M -48 0 A 48 22 0 0 1 48 0" fill="none" stroke="url(#metal)" stroke-width="12" stroke-linecap="round"/>
      <path d="M -48 0 A 48 22 0 0 1 48 0" fill="none" stroke="#ffffff" stroke-width="3.36" stroke-linecap="round" opacity="0.18"/>
    </g>
    <g id="link-back-bottom">
      <path d="M -48 0 A 48 22 0 0 0 48 0" fill="none" stroke="#070606" stroke-width="19" stroke-linecap="round"/>
      <path d="M -48 0 A 48 22 0 0 0 48 0" fill="none" stroke="url(#metal)" stroke-width="12" stroke-linecap="round"/>
      <path d="M -48 0 A 48 22 0 0 0 48 0" fill="none" stroke="#000000" stroke-width="4.56" stroke-linecap="round" opacity="0.28"/>
    </g>
    <g id="link-front-top">
      <path d="M -48 0 A 48 22 0 0 1 48 0" fill="none" stroke="#070606" stroke-width="19" stroke-linecap="round"/>
      <path d="M -48 0 A 48 22 0 0 1 48 0" fill="none" stroke="url(#metal)" stroke-width="12" stroke-linecap="round"/>
      <path d="M -48 0 A 48 22 0 0 1 48 0" fill="none" stroke="#ffffff" stroke-width="3.36" stroke-linecap="round" opacity="0.34"/>
    </g>
    <g id="link-front-bottom">
      <path d="M -48 0 A 48 22 0 0 0 48 0" fill="none" stroke="#070606" stroke-width="19" stroke-linecap="round"/>
      <path d="M -48 0 A 48 22 0 0 0 48 0" fill="none" stroke="url(#metal)" stroke-width="12" stroke-linecap="round"/>
      <path d="M -48 0 A 48 22 0 0 0 48 0" fill="none" stroke="#000000" stroke-width="4.56" stroke-linecap="round" opacity="0.42"/>
    </g>
  </defs>
  <g transform="scale(2)">
    <g filter="url(#soft-shadow)" transform="translate(210 210) rotate(-135) translate(-310 -91)">
      <g>
      <use href="#link-back-bottom" transform="translate(124 111) rotate(35) scale(0.98)"/>
      <use href="#link-back-top" transform="translate(183 87) rotate(-30) scale(0.97)"/>
      <use href="#link-back-bottom" transform="translate(245 71) rotate(24) scale(0.96)"/>
      <use href="#link-back-top" transform="translate(310 65) rotate(-15) scale(0.95)"/>
      <use href="#link-back-bottom" transform="translate(376 69) rotate(10) scale(0.96)"/>
      <use href="#link-back-top" transform="translate(442 87) rotate(-19) scale(0.98)"/>
      <use href="#link-back-bottom" transform="translate(504 112) rotate(30) scale(1)"/>
      </g>
      <g>
      <use href="#link-front-top" transform="translate(124 111) rotate(35) scale(0.98)"/>
      <use href="#link-front-bottom" transform="translate(183 87) rotate(-30) scale(0.97)"/>
      <use href="#link-front-top" transform="translate(245 71) rotate(24) scale(0.96)"/>
      <use href="#link-front-bottom" transform="translate(310 65) rotate(-15) scale(0.95)"/>
      <use href="#link-front-top" transform="translate(376 69) rotate(10) scale(0.96)"/>
      <use href="#link-front-bottom" transform="translate(442 87) rotate(-19) scale(0.98)"/>
      <use href="#link-front-top" transform="translate(504 112) rotate(30) scale(1)"/>
      </g>
    </g>
  </g>
</svg>