<svg xmlns="http://www.w3.org/2000/svg" width="840" height="840" viewBox="0 0 840 840" role="img" aria-label="Interlinked chain variant 7">
  <defs>
    <linearGradient id="metal" x1="-30" y1="-26" x2="34" y2="22" gradientUnits="userSpaceOnUse">
      <stop offset="0" stop-color="#fff9ef"/>
      <stop offset="0.14" stop-color="#8a8178"/>
      <stop offset="0.45" stop-color="#272422"/>
      <stop offset="0.74" stop-color="#c3b8ac"/>
      <stop offset="1" stop-color="#0b0a09"/>
    </linearGradient>
    <filter id="soft-shadow" x="-45%" y="-45%" width="190%" height="190%">
      <feDropShadow dx="0" dy="8" stdDeviation="5" flood-color="#000000" flood-opacity="0.5"/>
    </filter>
    <g id="link-back-top">
      <path d="M -41 0 A 41 22 0 0 1 41 0" fill="none" stroke="#070606" stroke-width="18" stroke-linecap="round"/>
      <path d="M -41 0 A 41 22 0 0 1 41 0" fill="none" stroke="url(#metal)" stroke-width="12" stroke-linecap="round"/>
      <path d="M -41 0 A 41 22 0 0 1 41 0" fill="none" stroke="#ffffff" stroke-width="3.36" stroke-linecap="round" opacity="0.18"/>
    </g>
    <g id="link-back-bottom">
      <path d="M -41 0 A 41 22 0 0 0 41 0" fill="none" stroke="#070606" stroke-width="18" stroke-linecap="round"/>
      <path d="M -41 0 A 41 22 0 0 0 41 0" fill="none" stroke="url(#metal)" stroke-width="12" stroke-linecap="round"/>
      <path d="M -41 0 A 41 22 0 0 0 41 0" fill="none" stroke="#000000" stroke-width="4.56" stroke-linecap="round" opacity="0.28"/>
    </g>
    <g id="link-front-top">
      <path d="M -41 0 A 41 22 0 0 1 41 0" fill="none" stroke="#070606" stroke-width="18" stroke-linecap="round"/>
      <path d="M -41 0 A 41 22 0 0 1 41 0" fill="none" stroke="url(#metal)" stroke-width="12" stroke-linecap="round"/>
      <path d="M -41 0 A 41 22 0 0 1 41 0" fill="none" stroke="#ffffff" stroke-width="3.36" stroke-linecap="round" opacity="0.34"/>
    </g>
    <g id="link-front-bottom">
      <path d="M -41 0 A 41 22 0 0 0 41 0" fill="none" stroke="#070606" stroke-width="18" stroke-linecap="round"/>
      <path d="M -41 0 A 41 22 0 0 0 41 0" fill="none" stroke="url(#metal)" stroke-width="12" stroke-linecap="round"/>
      <path d="M -41 0 A 41 22 0 0 0 41 0" fill="none" stroke="#000000" stroke-width="4.56" stroke-linecap="round" opacity="0.42"/>
    </g>
  </defs>
  <g transform="scale(2)">
    <g filter="url(#soft-shadow)" transform="translate(210 210) rotate(-135) translate(-314 -93)">
      <g>
      <use href="#link-back-bottom" transform="translate(137 121) rotate(38) scale(0.98)"/>
      <use href="#link-back-top" transform="translate(190 91) rotate(-35) scale(1.04)"/>
      <use href="#link-back-bottom" transform="translate(245 67) rotate(30) scale(1.09)"/>
      <use href="#link-back-top" transform="translate(308 55) rotate(-18) scale(1.13)"/>
      <use href="#link-back-bottom" transform="translate(376 61) rotate(13) scale(1.11)"/>
      <use href="#link-back-top" transform="translate(439 82) rotate(-23) scale(1.05)"/>
      <use href="#link-back-bottom" transform="translate(494 113) rotate(33) scale(0.99)"/>
      </g>
      <g>
      <use href="#link-front-top" transform="translate(137 121) rotate(38) scale(0.98)"/>
      <use href="#link-front-bottom" transform="translate(190 91) rotate(-35) scale(1.04)"/>
      <use href="#link-front-top" transform="translate(245 67) rotate(30) scale(1.09)"/>
      <use href="#link-front-bottom" transform="translate(308 55) rotate(-18) scale(1.13)"/>
      <use href="#link-front-top" transform="translate(376 61) rotate(13) scale(1.11)"/>
      <use href="#link-front-bottom" transform="translate(439 82) rotate(-23) scale(1.05)"/>
      <use href="#link-front-top" transform="translate(494 113) rotate(33) scale(0.99)"/>
      </g>
    </g>
  </g>
</svg>