<svg xmlns="http://www.w3.org/2000/svg" width="840" height="840" viewBox="0 0 840 840" role="img" aria-label="Interlinked chain variant 4">
  <defs>
    <linearGradient id="metal" x1="-30" y1="-26" x2="34" y2="22" gradientUnits="userSpaceOnUse">
      <stop offset="0" stop-color="#fff9ef"/>
      <stop offset="0.14" stop-color="#8a8178"/>
      <stop offset="0.45" stop-color="#272422"/>
      <stop offset="0.74" stop-color="#c3b8ac"/>
      <stop offset="1" stop-color="#0b0a09"/>
    </linearGradient>
    <filter id="soft-shadow" x="-45%" y="-45%" width="190%" height="190%">
      <feDropShadow dx="0" dy="8" stdDeviation="5" flood-color="#000000" flood-opacity="0.5"/>
    </filter>
    <g id="link-back-top">
      <path d="M -39 0 A 39 23 0 0 1 39 0" fill="none" stroke="#070606" stroke-width="18" stroke-linecap="round"/>
      <path d="M -39 0 A 39 23 0 0 1 39 0" fill="none" stroke="url(#metal)" stroke-width="11" stroke-linecap="round"/>
      <path d="M -39 0 A 39 23 0 0 1 39 0" fill="none" stroke="#ffffff" stroke-width="3.08" stroke-linecap="round" opacity="0.18"/>
    </g>
    <g id="link-back-bottom">
      <path d="M -39 0 A 39 23 0 0 0 39 0" fill="none" stroke="#070606" stroke-width="18" stroke-linecap="round"/>
      <path d="M -39 0 A 39 23 0 0 0 39 0" fill="none" stroke="url(#metal)" stroke-width="11" stroke-linecap="round"/>
      <path d="M -39 0 A 39 23 0 0 0 39 0" fill="none" stroke="#000000" stroke-width="4.18" stroke-linecap="round" opacity="0.28"/>
    </g>
    <g id="link-front-top">
      <path d="M -39 0 A 39 23 0 0 1 39 0" fill="none" stroke="#070606" stroke-width="18" stroke-linecap="round"/>
      <path d="M -39 0 A 39 23 0 0 1 39 0" fill="none" stroke="url(#metal)" stroke-width="11" stroke-linecap="round"/>
      <path d="M -39 0 A 39 23 0 0 1 39 0" fill="none" stroke="#ffffff" stroke-width="3.08" stroke-linecap="round" opacity="0.34"/>
    </g>
    <g id="link-front-bottom">
      <path d="M -39 0 A 39 23 0 0 0 39 0" fill="none" stroke="#070606" stroke-width="18" stroke-linecap="round"/>
      <path d="M -39 0 A 39 23 0 0 0 39 0" fill="none" stroke="url(#metal)" stroke-width="11" stroke-linecap="round"/>
      <path d="M -39 0 A 39 23 0 0 0 39 0" fill="none" stroke="#000000" stroke-width="4.18" stroke-linecap="round" opacity="0.42"/>
    </g>
  </defs>
  <g transform="scale(2)">
    <g filter="url(#soft-shadow)" transform="translate(210 210) rotate(-135) translate(-313 -96)">
      <g>
      <use href="#link-back-top" transform="translate(132 123) rotate(48) scale(1.12)"/>
      <use href="#link-back-bottom" transform="translate(178 91) rotate(-42) scale(1.08)"/>
      <use href="#link-back-top" transform="translate(236 67) rotate(35) scale(1.02)"/>
      <use href="#link-back-bottom" transform="translate(306 57) rotate(-23) scale(0.98)"/>
      <use href="#link-back-top" transform="translate(377 62) rotate(18) scale(1.02)"/>
      <use href="#link-back-bottom" transform="translate(443 87) rotate(-30) scale(1.09)"/>
      <use href="#link-back-top" transform="translate(498 122) rotate(43) scale(1.15)"/>
      </g>
      <g>
      <use href="#link-front-bottom" transform="translate(132 123) rotate(48) scale(1.12)"/>
      <use href="#link-front-top" transform="translate(178 91) rotate(-42) scale(1.08)"/>
      <use href="#link-front-bottom" transform="translate(236 67) rotate(35) scale(1.02)"/>
      <use href="#link-front-top" transform="translate(306 57) rotate(-23) scale(0.98)"/>
      <use href="#link-front-bottom" transform="translate(377 62) rotate(18) scale(1.02)"/>
      <use href="#link-front-top" transform="translate(443 87) rotate(-30) scale(1.09)"/>
      <use href="#link-front-bottom" transform="translate(498 122) rotate(43) scale(1.15)"/>
      </g>
    </g>
  </g>
</svg>